<svg width="37" height="37" viewBox="0 0 37 37" fill="none" xmlns="http://www.w3.org/2000/svg">
<g clip-path="url(#clip0_173_25)">
<path d="M35.9723 26.7222C35.9723 27.8126 35.5391 28.8582 34.7682 29.6292C33.9972 30.4002 32.9515 30.8333 31.8612 30.8333H5.13894C4.04861 30.8333 3.00293 30.4002 2.23195 29.6292C1.46097 28.8582 1.02783 27.8126 1.02783 26.7222V6.48836C1.02783 4.218 6.97969 0 9.25005 0H30.448C33.6279 0 35.9723 2.37622 35.9723 5.52431V26.7222Z" fill="#A0041E"/>
<path d="M33.9167 30.8333C33.9167 31.9236 33.4836 32.9693 32.7126 33.7403C31.9416 34.5113 30.8959 34.9444 29.8056 34.9444H7.19449C6.10415 34.9444 5.05847 34.5113 4.28749 33.7403C3.51651 32.9693 3.08338 31.9236 3.08338 30.8333V6.16665C3.08338 1.93324 3.06179 2.05554 8.22226 2.05554H29.8056C30.8959 2.05554 31.9416 2.48867 32.7126 3.25966C33.4836 4.03064 33.9167 5.07632 33.9167 6.16665V30.8333Z" fill="#CCD6DD"/>
<path d="M31.8612 31.8611C31.8612 32.6788 31.5363 33.4631 30.9581 34.0413C30.3798 34.6196 29.5956 34.9444 28.7778 34.9444H4.11117C3.29341 34.9444 2.50916 34.6196 1.93092 34.0413C1.35268 33.4631 1.02783 32.6788 1.02783 31.8611V7.19442C1.02783 6.37667 1.35268 5.59241 1.93092 5.01417C2.50916 4.43593 3.29341 4.11108 4.11117 4.11108H28.7778C29.5956 4.11108 30.3798 4.43593 30.9581 5.01417C31.5363 5.59241 31.8612 6.37667 31.8612 7.19442V31.8611Z" fill="#E1E8ED"/>
<path d="M31.8611 32.8889C31.8611 33.9792 31.428 35.0249 30.657 35.7959C29.886 36.5669 28.8403 37 27.75 37H6.16665C5.07632 37 4.03064 36.5669 3.25966 35.7959C2.48868 35.0249 2.05554 33.9792 2.05554 32.8889V10.2778C2.05554 9.18746 2.48868 8.14179 3.25966 7.3708C4.03064 6.59982 5.07632 6.16669 6.16665 6.16669H27.75C28.8403 6.16669 29.886 6.59982 30.657 7.3708C31.428 8.14179 31.8611 9.18746 31.8611 10.2778V32.8889Z" fill="#BE1931"/>
<path d="M29.8055 32.8889C29.8055 33.9792 29.3724 35.0249 28.6014 35.7959C27.8304 36.5669 26.7848 37 25.6944 37H6.16665C5.07632 37 4.03064 36.5669 3.25966 35.7959C2.48868 35.0249 2.05554 33.9792 2.05554 32.8889V12.3333C2.05554 11.243 2.48868 10.1973 3.25966 9.42635C4.03064 8.65536 5.07632 8.22223 6.16665 8.22223H26.0387C28.3091 8.22223 29.8055 9.71867 29.8055 11.989V32.8889Z" fill="#DD2E44"/>
<path d="M6.16672 6.16667C4.43183 6.16667 4.38764 4.19128 5.13894 3.34028C5.99405 2.37314 7.32297 2.05556 9.70022 2.05556H11.3056V0H8.51108C4.43183 0 1.02783 2.56944 1.02783 5.52431V32.8889C1.02783 33.9792 1.46097 35.0249 2.23195 35.7959C3.00293 36.5669 4.04861 37 5.13894 37H7.1945V6.16667H6.16672Z" fill="#A0041E"/>
</g>
<defs>
<clipPath id="clip0_173_25">
<rect width="37" height="37" fill="white"/>
</clipPath>
</defs>
</svg>
