<svg width="45" height="45" viewBox="0 0 45 45" fill="none" xmlns="http://www.w3.org/2000/svg">
<path d="M10.3125 40.3125H34.6875C35.4334 40.3125 36.1488 40.0162 36.6762 39.4887C37.2037 38.9613 37.5 38.2459 37.5 37.5V16.875L28.125 13.125L24.375 3.75H10.3125C9.56658 3.75 8.85121 4.04632 8.32376 4.57376C7.79632 5.10121 7.5 5.81658 7.5 6.5625V37.5C7.5 38.2459 7.79632 38.9613 8.32376 39.4887C8.85121 40.0162 9.56658 40.3125 10.3125 40.3125Z" fill="url(#paint0_linear_173_38)"/>
<path d="M10.3125 40.3125H34.6875C35.4334 40.3125 36.1488 40.0162 36.6762 39.4887C37.2037 38.9613 37.5 38.2459 37.5 37.5V16.875L28.125 13.125L24.375 3.75H10.3125C9.56658 3.75 8.85121 4.04632 8.32376 4.57376C7.79632 5.10121 7.5 5.81658 7.5 6.5625V37.5C7.5 38.2459 7.79632 38.9613 8.32376 39.4887C8.85121 40.0162 9.56658 40.3125 10.3125 40.3125Z" fill="url(#paint1_radial_173_38)" fill-opacity="0.5"/>
<path d="M24.375 14.0625V3.75L37.5 16.875H27.1875C26.4416 16.875 25.7262 16.5787 25.1988 16.0512C24.6713 15.5238 24.375 14.8084 24.375 14.0625Z" fill="url(#paint2_linear_173_38)"/>
<path d="M15.2344 21.5625C14.9236 21.5625 14.6255 21.686 14.4057 21.9057C14.186 22.1255 14.0625 22.4236 14.0625 22.7344C14.0625 23.0452 14.186 23.3432 14.4057 23.563C14.6255 23.7828 14.9236 23.9062 15.2344 23.9062H29.7656C30.0764 23.9062 30.3745 23.7828 30.5943 23.563C30.814 23.3432 30.9375 23.0452 30.9375 22.7344C30.9375 22.4236 30.814 22.1255 30.5943 21.9057C30.3745 21.686 30.0764 21.5625 29.7656 21.5625H15.2344ZM14.0625 28.3594C14.0625 27.7125 14.5875 27.1875 15.2344 27.1875H29.7656C30.0764 27.1875 30.3745 27.311 30.5943 27.5307C30.814 27.7505 30.9375 28.0486 30.9375 28.3594C30.9375 28.6702 30.814 28.9682 30.5943 29.188C30.3745 29.4078 30.0764 29.5312 29.7656 29.5312H15.2344C14.5875 29.5312 14.0625 29.0062 14.0625 28.3594ZM15.2344 32.8125C14.9236 32.8125 14.6255 32.936 14.4057 33.1557C14.186 33.3755 14.0625 33.6736 14.0625 33.9844C14.0625 34.2952 14.186 34.5932 14.4057 34.813C14.6255 35.0328 14.9236 35.1562 15.2344 35.1562H29.7656C30.0764 35.1562 30.3745 35.0328 30.5943 34.813C30.814 34.5932 30.9375 34.2952 30.9375 33.9844C30.9375 33.6736 30.814 33.3755 30.5943 33.1557C30.3745 32.936 30.0764 32.8125 29.7656 32.8125H15.2344Z" fill="url(#paint3_linear_173_38)" fill-opacity="0.9"/>
<defs>
<linearGradient id="paint0_linear_173_38" x1="28.5" y1="3.75" x2="31.3913" y2="34.6041" gradientUnits="userSpaceOnUse">
<stop offset="1" stop-color="#4894FE"/>
</linearGradient>
<radialGradient id="paint1_radial_173_38" cx="0" cy="0" r="1" gradientUnits="userSpaceOnUse" gradientTransform="translate(38.7497 4.89281) rotate(134.348) scale(23.247 13.738)">
<stop offset="0.362" stop-color="#4A43CB"/>
<stop offset="1" stop-color="#4A43CB" stop-opacity="0"/>
</radialGradient>
<linearGradient id="paint2_linear_173_38" x1="30.9159" y1="9.21844" x2="27.6347" y2="14.6878" gradientUnits="userSpaceOnUse">
<stop stop-color="#9FF0F9"/>
<stop offset="1" stop-color="#B3E0FF"/>
</linearGradient>
<linearGradient id="paint3_linear_173_38" x1="30.9375" y1="40.5938" x2="16.3781" y2="14.8172" gradientUnits="userSpaceOnUse">
<stop stop-color="#9DEAFF"/>
<stop offset="1" stop-color="white"/>
</linearGradient>
</defs>
</svg>
